<svg width="951" height="768" viewBox="0 0 951 768" fill="none" xmlns="http://www.w3.org/2000/svg">
<g clip-path="url(#clip0_1_2)">
<path d="M950 0H0V768H950V0Z" fill="#F6712A"/>
<g clip-path="url(#clip1_1_2)">
<mask id="mask0_1_2" style="mask-type:luminance" maskUnits="userSpaceOnUse" x="0" y="0" width="950" height="768">
<path d="M950 0H0V768H950V0Z" fill="white"/>
</mask>
<g mask="url(#mask0_1_2)">
<path d="M323.796 77C323.796 49.2477 274.526 11 247.85 11C221.173 11 172.62 24.7114 163 77C163 104.752 181.112 158 247.849 158C274.526 158 327.704 131.607 323.796 77Z" fill="url(#paint0_linear_1_2)"/>
<path d="M-48.5363 170.926C-48.5363 126.397 14.6309 64.2799 51.359 64.2799C88.0871 64.2799 132.256 62.6019 145.5 146.5C126.5 228 103 313.5 22.5 327.5C-14.2281 327.5 -53.9168 258.544 -48.5363 170.926Z" fill="url(#paint1_linear_1_2)"/>
<path d="M180.786 169.498C149.579 174.524 154.601 140.409 119.807 129.996C85.0131 119.583 0 164.829 0 152.619C0 140.41 0.000915528 0 0.000915528 0L119.807 30.1655C230.646 84.0321 211.994 164.472 180.786 169.498Z" fill="#8BC54B"/>
<path d="M180.423 169.498C149.278 174.524 154.29 140.409 119.566 129.996C84.8419 119.583 0 164.829 0 152.619C0 140.41 0.000915528 0 0.000915528 0C45.3037 22.061 96.8326 32.3889 130.483 62.3333C178.996 105.504 198.812 166.53 180.423 169.498Z" fill="#70A23D"/>
<path d="M380 0C356.242 30.1969 326.568 68.8792 273.97 81.0148C220.116 93.4403 150.861 71.7763 95.3558 83.5021C57.7447 91.4477 26.4631 127.707 0 155.634V0H380Z" fill="#005BA8"/>
<path d="M0 0.000671387H348.8C328.305 22.8371 302.11 46.5049 261.904 55.1141C235.938 60.6742 206.225 58.5403 176.343 56.3942C146.981 54.2855 117.454 52.1649 91.1564 57.3208C58.2076 63.7805 30.3401 91.335 6.44229 114.964L6.4368 114.97C4.25848 117.124 2.11316 119.245 0 121.314V0.000671387Z" fill="#0269BF"/>
<path d="M813 668.384C813 713.883 754.774 735 709.231 735C663.688 735 639 713.883 639 668.384C639 622.884 675.92 586 721.463 586C767.005 586 813 622.884 813 668.384Z" fill="url(#paint2_linear_1_2)"/>
<path d="M687.415 756.117C717.18 766.05 753.877 674.456 811.776 767.277L950 767.278C950 756.195 950 641.812 950 641.812L795.466 644.67C676.814 663.04 657.65 746.183 687.415 756.117Z" fill="#70A23D"/>
<path d="M675.222 730.946C675.222 730.946 753.47 616.641 857.443 767.278H950C950 756.195 950 641.812 950 641.812L795.466 644.67C712.59 657.501 678.252 701.933 675.222 730.946Z" fill="#8BC54B"/>
<path d="M740.384 768C862.78 699.489 709.544 617.954 790.981 558.61C822.785 532.934 908.076 564.399 950 586.597V768H740.384Z" fill="#005BA8"/>
<path d="M775.561 768C877.417 710.949 749.897 643.053 817.667 593.635C844.134 572.254 915.112 598.456 950 616.941V768H775.561Z" fill="#0269BF"/>
<path d="M901 143.162C899.895 143.162 899 144.032 899 145.104C899 146.176 899.895 147.046 901 147.046C902.105 147.046 903 146.176 903 145.104C903 144.032 902.105 143.162 901 143.162Z" fill="white" fill-opacity="0.5"/>
<path d="M923 143.162C921.895 143.162 921 144.032 921 145.104C921 146.176 921.895 147.046 923 147.046C924.105 147.046 925 146.176 925 145.104C925 144.032 924.105 143.162 923 143.162Z" fill="white" fill-opacity="0.5"/>
<path d="M945 143.162C943.895 143.162 943 144.032 943 145.104C943 146.176 943.895 147.046 945 147.046C946.105 147.046 947 146.176 947 145.104C947 144.032 946.105 143.162 945 143.162Z" fill="white" fill-opacity="0.5"/>
<path d="M945 121.801C943.895 121.801 943 122.671 943 123.743C943 124.815 943.895 125.685 945 125.685C946.105 125.685 947 124.815 947 123.743C947 122.671 946.105 121.801 945 121.801Z" fill="white" fill-opacity="0.5"/>
<path d="M945 100.441C943.895 100.441 943 101.311 943 102.383C943 103.455 943.895 104.325 945 104.325C946.105 104.325 947 103.455 947 102.383C947 101.311 946.105 100.441 945 100.441Z" fill="white" fill-opacity="0.5"/>
<path d="M945 79.081C943.895 79.081 943 79.9504 943 81.0228C943 82.0953 943.895 82.9647 945 82.9647C946.105 82.9647 947 82.0953 947 81.0228C947 79.9504 946.105 79.081 945 79.081Z" fill="white" fill-opacity="0.5"/>
<path d="M945 57.7207C943.895 57.7207 943 58.5901 943 59.6625C943 60.735 943.895 61.6044 945 61.6044C946.105 61.6044 947 60.735 947 59.6625C947 58.5901 946.105 57.7207 945 57.7207Z" fill="white" fill-opacity="0.5"/>
<path d="M945 36.3603C943.895 36.3603 943 37.2297 943 38.3022C943 39.3746 943.895 40.244 945 40.244C946.105 40.244 947 39.3746 947 38.3022C947 37.2297 946.105 36.3603 945 36.3603Z" fill="white" fill-opacity="0.5"/>
<path d="M945 15C943.895 15 943 15.8694 943 16.9419C943 18.0143 943.895 18.8837 945 18.8837C946.105 18.8837 947 18.0143 947 16.9419C947 15.8694 946.105 15 945 15Z" fill="white" fill-opacity="0.5"/>
<path d="M923 121.801C921.895 121.801 921 122.671 921 123.743C921 124.815 921.895 125.685 923 125.685C924.105 125.685 925 124.815 925 123.743C925 122.671 924.105 121.801 923 121.801Z" fill="white" fill-opacity="0.5"/>
<path d="M923 100.441C921.895 100.441 921 101.311 921 102.383C921 103.455 921.895 104.325 923 104.325C924.105 104.325 925 103.455 925 102.383C925 101.311 924.105 100.441 923 100.441Z" fill="white" fill-opacity="0.5"/>
<path d="M923 79.081C921.895 79.081 921 79.9504 921 81.0228C921 82.0953 921.895 82.9647 923 82.9647C924.105 82.9647 925 82.0953 925 81.0228C925 79.9504 924.105 79.081 923 79.081Z" fill="white" fill-opacity="0.5"/>
<path d="M923 57.7207C921.895 57.7207 921 58.5901 921 59.6625C921 60.735 921.895 61.6044 923 61.6044C924.105 61.6044 925 60.735 925 59.6625C925 58.5901 924.105 57.7207 923 57.7207Z" fill="white" fill-opacity="0.5"/>
<path d="M923 36.3603C921.895 36.3603 921 37.2297 921 38.3022C921 39.3746 921.895 40.244 923 40.244C924.105 40.244 925 39.3746 925 38.3022C925 37.2297 924.105 36.3603 923 36.3603Z" fill="white" fill-opacity="0.5"/>
<path d="M923 15C921.895 15 921 15.8694 921 16.9419C921 18.0143 921.895 18.8837 923 18.8837C924.105 18.8837 925 18.0143 925 16.9419C925 15.8694 924.105 15 923 15Z" fill="white" fill-opacity="0.5"/>
<path d="M901 121.801C899.895 121.801 899 122.671 899 123.743C899 124.815 899.895 125.685 901 125.685C902.105 125.685 903 124.815 903 123.743C903 122.671 902.105 121.801 901 121.801Z" fill="white" fill-opacity="0.5"/>
<path d="M901 100.441C899.895 100.441 899 101.311 899 102.383C899 103.455 899.895 104.325 901 104.325C902.105 104.325 903 103.455 903 102.383C903 101.311 902.105 100.441 901 100.441Z" fill="white" fill-opacity="0.5"/>
<path d="M901 79.081C899.895 79.081 899 79.9504 899 81.0228C899 82.0953 899.895 82.9647 901 82.9647C902.105 82.9647 903 82.0953 903 81.0228C903 79.9504 902.105 79.081 901 79.081Z" fill="white" fill-opacity="0.5"/>
<path d="M901 57.7207C899.895 57.7207 899 58.5901 899 59.6625C899 60.735 899.895 61.6044 901 61.6044C902.105 61.6044 903 60.735 903 59.6625C903 58.5901 902.105 57.7207 901 57.7207Z" fill="white" fill-opacity="0.5"/>
<path d="M901 36.3603C899.895 36.3603 899 37.2297 899 38.3022C899 39.3746 899.895 40.244 901 40.244C902.105 40.244 903 39.3746 903 38.3022C903 37.2297 902.105 36.3603 901 36.3603Z" fill="white" fill-opacity="0.5"/>
<path d="M901 15C899.895 15 899 15.8694 899 16.9419C899 18.0143 899.895 18.8837 901 18.8837C902.105 18.8837 903 18.0143 903 16.9419C903 15.8694 902.105 15 901 15Z" fill="white" fill-opacity="0.5"/>
<path d="M879 15C877.895 15 877 15.8694 877 16.9419C877 18.0143 877.895 18.8837 879 18.8837C880.105 18.8837 881 18.0143 881 16.9419C881 15.8694 880.105 15 879 15Z" fill="white" fill-opacity="0.5"/>
<path d="M857 15C855.895 15 855 15.8694 855 16.9419C855 18.0143 855.895 18.8837 857 18.8837C858.105 18.8837 859 18.0143 859 16.9419C859 15.8694 858.105 15 857 15Z" fill="white" fill-opacity="0.5"/>
<path d="M835 15C833.895 15 833 15.8694 833 16.9419C833 18.0143 833.895 18.8837 835 18.8837C836.105 18.8837 837 18.0143 837 16.9419C837 15.8694 836.105 15 835 15Z" fill="white" fill-opacity="0.5"/>
<path d="M813 15C811.895 15 811 15.8694 811 16.9419C811 18.0143 811.895 18.8837 813 18.8837C814.105 18.8837 815 18.0143 815 16.9419C815 15.8694 814.105 15 813 15Z" fill="white" fill-opacity="0.5"/>
<path d="M791 15C789.895 15 789 15.8694 789 16.9419C789 18.0143 789.895 18.8837 791 18.8837C792.105 18.8837 793 18.0143 793 16.9419C793 15.8694 792.105 15 791 15Z" fill="white" fill-opacity="0.5"/>
<path d="M879 143.162C877.895 143.162 877 144.032 877 145.104C877 146.176 877.895 147.046 879 147.046C880.105 147.046 881 146.176 881 145.104C881 144.032 880.105 143.162 879 143.162Z" fill="white" fill-opacity="0.5"/>
<path d="M879 121.801C877.895 121.801 877 122.671 877 123.743C877 124.815 877.895 125.685 879 125.685C880.105 125.685 881 124.815 881 123.743C881 122.671 880.105 121.801 879 121.801Z" fill="white" fill-opacity="0.5"/>
<path d="M879 100.441C877.895 100.441 877 101.311 877 102.383C877 103.455 877.895 104.325 879 104.325C880.105 104.325 881 103.455 881 102.383C881 101.311 880.105 100.441 879 100.441Z" fill="white" fill-opacity="0.5"/>
<path d="M879 79.081C877.895 79.081 877 79.9504 877 81.0228C877 82.0953 877.895 82.9647 879 82.9647C880.105 82.9647 881 82.0953 881 81.0228C881 79.9504 880.105 79.081 879 79.081Z" fill="white" fill-opacity="0.5"/>
<path d="M879 57.7207C877.895 57.7207 877 58.5901 877 59.6625C877 60.735 877.895 61.6044 879 61.6044C880.105 61.6044 881 60.735 881 59.6625C881 58.5901 880.105 57.7207 879 57.7207Z" fill="white" fill-opacity="0.5"/>
<path d="M879 36.3603C877.895 36.3603 877 37.2297 877 38.3022C877 39.3746 877.895 40.244 879 40.244C880.105 40.244 881 39.3746 881 38.3022C881 37.2297 880.105 36.3603 879 36.3603Z" fill="white" fill-opacity="0.5"/>
<path d="M857 143.162C855.895 143.162 855 144.032 855 145.104C855 146.176 855.895 147.046 857 147.046C858.105 147.046 859 146.176 859 145.104C859 144.032 858.105 143.162 857 143.162Z" fill="white" fill-opacity="0.5"/>
<path d="M857 121.801C855.895 121.801 855 122.671 855 123.743C855 124.815 855.895 125.685 857 125.685C858.105 125.685 859 124.815 859 123.743C859 122.671 858.105 121.801 857 121.801Z" fill="white" fill-opacity="0.5"/>
<path d="M857 100.441C855.895 100.441 855 101.311 855 102.383C855 103.455 855.895 104.325 857 104.325C858.105 104.325 859 103.455 859 102.383C859 101.311 858.105 100.441 857 100.441Z" fill="white" fill-opacity="0.5"/>
<path d="M857 79.081C855.895 79.081 855 79.9504 855 81.0228C855 82.0953 855.895 82.9647 857 82.9647C858.105 82.9647 859 82.0953 859 81.0228C859 79.9504 858.105 79.081 857 79.081Z" fill="white" fill-opacity="0.5"/>
<path d="M857 57.7207C855.895 57.7207 855 58.5901 855 59.6625C855 60.735 855.895 61.6044 857 61.6044C858.105 61.6044 859 60.735 859 59.6625C859 58.5901 858.105 57.7207 857 57.7207Z" fill="white" fill-opacity="0.5"/>
<path d="M857 36.3603C855.895 36.3603 855 37.2297 855 38.3022C855 39.3746 855.895 40.244 857 40.244C858.105 40.244 859 39.3746 859 38.3022C859 37.2297 858.105 36.3603 857 36.3603Z" fill="white" fill-opacity="0.5"/>
<path d="M835 143.162C833.895 143.162 833 144.032 833 145.104C833 146.176 833.895 147.046 835 147.046C836.105 147.046 837 146.176 837 145.104C837 144.032 836.105 143.162 835 143.162Z" fill="white" fill-opacity="0.5"/>
<path d="M813 143.162C811.895 143.162 811 144.032 811 145.104C811 146.176 811.895 147.046 813 147.046C814.105 147.046 815 146.176 815 145.104C815 144.032 814.105 143.162 813 143.162Z" fill="white" fill-opacity="0.5"/>
<path d="M791 143.162C789.895 143.162 789 144.032 789 145.104C789 146.176 789.895 147.046 791 147.046C792.105 147.046 793 146.176 793 145.104C793 144.032 792.105 143.162 791 143.162Z" fill="white" fill-opacity="0.5"/>
<path d="M835 121.801C833.895 121.801 833 122.671 833 123.743C833 124.815 833.895 125.685 835 125.685C836.105 125.685 837 124.815 837 123.743C837 122.671 836.105 121.801 835 121.801Z" fill="white" fill-opacity="0.5"/>
<path d="M813 121.801C811.895 121.801 811 122.671 811 123.743C811 124.815 811.895 125.685 813 125.685C814.105 125.685 815 124.815 815 123.743C815 122.671 814.105 121.801 813 121.801Z" fill="white" fill-opacity="0.5"/>
<path d="M791 121.801C789.895 121.801 789 122.671 789 123.743C789 124.815 789.895 125.685 791 125.685C792.105 125.685 793 124.815 793 123.743C793 122.671 792.105 121.801 791 121.801Z" fill="white" fill-opacity="0.5"/>
<path d="M835 100.441C833.895 100.441 833 101.311 833 102.383C833 103.455 833.895 104.325 835 104.325C836.105 104.325 837 103.455 837 102.383C837 101.311 836.105 100.441 835 100.441Z" fill="white" fill-opacity="0.5"/>
<path d="M813 100.441C811.895 100.441 811 101.311 811 102.383C811 103.455 811.895 104.325 813 104.325C814.105 104.325 815 103.455 815 102.383C815 101.311 814.105 100.441 813 100.441Z" fill="white" fill-opacity="0.5"/>
<path d="M791 100.441C789.895 100.441 789 101.311 789 102.383C789 103.455 789.895 104.325 791 104.325C792.105 104.325 793 103.455 793 102.383C793 101.311 792.105 100.441 791 100.441Z" fill="white" fill-opacity="0.5"/>
<path d="M835 79.081C833.895 79.081 833 79.9504 833 81.0228C833 82.0953 833.895 82.9647 835 82.9647C836.105 82.9647 837 82.0953 837 81.0228C837 79.9504 836.105 79.081 835 79.081Z" fill="white" fill-opacity="0.5"/>
<path d="M835 57.7207C833.895 57.7207 833 58.5901 833 59.6625C833 60.735 833.895 61.6044 835 61.6044C836.105 61.6044 837 60.735 837 59.6625C837 58.5901 836.105 57.7207 835 57.7207Z" fill="white" fill-opacity="0.5"/>
<path d="M835 36.3603C833.895 36.3603 833 37.2297 833 38.3022C833 39.3746 833.895 40.244 835 40.244C836.105 40.244 837 39.3746 837 38.3022C837 37.2297 836.105 36.3603 835 36.3603Z" fill="white" fill-opacity="0.5"/>
<path d="M813 79.081C811.895 79.081 811 79.9504 811 81.0228C811 82.0953 811.895 82.9647 813 82.9647C814.105 82.9647 815 82.0953 815 81.0228C815 79.9504 814.105 79.081 813 79.081Z" fill="white" fill-opacity="0.5"/>
<path d="M813 57.7207C811.895 57.7207 811 58.5901 811 59.6625C811 60.735 811.895 61.6044 813 61.6044C814.105 61.6044 815 60.735 815 59.6625C815 58.5901 814.105 57.7207 813 57.7207Z" fill="white" fill-opacity="0.5"/>
<path d="M813 36.3603C811.895 36.3603 811 37.2297 811 38.3022C811 39.3746 811.895 40.244 813 40.244C814.105 40.244 815 39.3746 815 38.3022C815 37.2297 814.105 36.3603 813 36.3603Z" fill="white" fill-opacity="0.5"/>
<path d="M791 79.081C789.895 79.081 789 79.9504 789 81.0228C789 82.0953 789.895 82.9647 791 82.9647C792.105 82.9647 793 82.0953 793 81.0228C793 79.9504 792.105 79.081 791 79.081Z" fill="white" fill-opacity="0.5"/>
<path d="M791 57.7207C789.895 57.7207 789 58.5901 789 59.6625C789 60.735 789.895 61.6044 791 61.6044C792.105 61.6044 793 60.735 793 59.6625C793 58.5901 792.105 57.7207 791 57.7207Z" fill="white" fill-opacity="0.5"/>
<path d="M791 36.3603C789.895 36.3603 789 37.2297 789 38.3022C789 39.3746 789.895 40.244 791 40.244C792.105 40.244 793 39.3746 793 38.3022C793 37.2297 792.105 36.3603 791 36.3603Z" fill="white" fill-opacity="0.5"/>
<path d="M256 761.872C254.895 761.872 254 762.742 254 763.814C254 764.886 254.895 765.756 256 765.756C257.105 765.756 258 764.886 258 763.814C258 762.742 257.105 761.872 256 761.872Z" fill="white" fill-opacity="0.5"/>
<path d="M256 740.512C254.895 740.512 254 741.382 254 742.454C254 743.526 254.895 744.396 256 744.396C257.105 744.396 258 743.526 258 742.454C258 741.382 257.105 740.512 256 740.512Z" fill="white" fill-opacity="0.5"/>
<path d="M256 719.152C254.895 719.152 254 720.022 254 721.094C254 722.166 254.895 723.036 256 723.036C257.105 723.036 258 722.166 258 721.094C258 720.022 257.105 719.152 256 719.152Z" fill="white" fill-opacity="0.5"/>
<path d="M256 697.791C254.895 697.791 254 698.661 254 699.733C254 700.805 254.895 701.675 256 701.675C257.105 701.675 258 700.805 258 699.733C258 698.661 257.105 697.791 256 697.791Z" fill="white" fill-opacity="0.5"/>
<path d="M256 676.431C254.895 676.431 254 677.301 254 678.373C254 679.445 254.895 680.315 256 680.315C257.105 680.315 258 679.445 258 678.373C258 677.301 257.105 676.431 256 676.431Z" fill="white" fill-opacity="0.5"/>
<path d="M256 655.071C254.895 655.071 254 655.941 254 657.013C254 658.085 254.895 658.955 256 658.955C257.105 658.955 258 658.085 258 657.013C258 655.941 257.105 655.071 256 655.071Z" fill="white" fill-opacity="0.5"/>
<path d="M234 761.872C232.895 761.872 232 762.742 232 763.814C232 764.886 232.895 765.756 234 765.756C235.105 765.756 236 764.886 236 763.814C236 762.742 235.105 761.872 234 761.872Z" fill="white" fill-opacity="0.5"/>
<path d="M234 740.512C232.895 740.512 232 741.382 232 742.454C232 743.526 232.895 744.396 234 744.396C235.105 744.396 236 743.526 236 742.454C236 741.382 235.105 740.512 234 740.512Z" fill="white" fill-opacity="0.5"/>
<path d="M234 719.152C232.895 719.152 232 720.022 232 721.094C232 722.166 232.895 723.036 234 723.036C235.105 723.036 236 722.166 236 721.094C236 720.022 235.105 719.152 234 719.152Z" fill="white" fill-opacity="0.5"/>
<path d="M234 697.791C232.895 697.791 232 698.661 232 699.733C232 700.805 232.895 701.675 234 701.675C235.105 701.675 236 700.805 236 699.733C236 698.661 235.105 697.791 234 697.791Z" fill="white" fill-opacity="0.5"/>
<path d="M234 676.431C232.895 676.431 232 677.301 232 678.373C232 679.445 232.895 680.315 234 680.315C235.105 680.315 236 679.445 236 678.373C236 677.301 235.105 676.431 234 676.431Z" fill="white" fill-opacity="0.5"/>
<path d="M234 655.071C232.895 655.071 232 655.941 232 657.013C232 658.085 232.895 658.955 234 658.955C235.105 658.955 236 658.085 236 657.013C236 655.941 235.105 655.071 234 655.071Z" fill="white" fill-opacity="0.5"/>
<path d="M212 761.872C210.895 761.872 210 762.742 210 763.814C210 764.886 210.895 765.756 212 765.756C213.105 765.756 214 764.886 214 763.814C214 762.742 213.105 761.872 212 761.872Z" fill="white" fill-opacity="0.5"/>
<path d="M212 740.512C210.895 740.512 210 741.382 210 742.454C210 743.526 210.895 744.396 212 744.396C213.105 744.396 214 743.526 214 742.454C214 741.382 213.105 740.512 212 740.512Z" fill="white" fill-opacity="0.5"/>
<path d="M212 719.152C210.895 719.152 210 720.022 210 721.094C210 722.166 210.895 723.036 212 723.036C213.105 723.036 214 722.166 214 721.094C214 720.022 213.105 719.152 212 719.152Z" fill="white" fill-opacity="0.5"/>
<path d="M212 697.791C210.895 697.791 210 698.661 210 699.733C210 700.805 210.895 701.675 212 701.675C213.105 701.675 214 700.805 214 699.733C214 698.661 213.105 697.791 212 697.791Z" fill="white" fill-opacity="0.5"/>
<path d="M212 676.431C210.895 676.431 210 677.301 210 678.373C210 679.445 210.895 680.315 212 680.315C213.105 680.315 214 679.445 214 678.373C214 677.301 213.105 676.431 212 676.431Z" fill="white" fill-opacity="0.5"/>
<path d="M212 655.071C210.895 655.071 210 655.941 210 657.013C210 658.085 210.895 658.955 212 658.955C213.105 658.955 214 658.085 214 657.013C214 655.941 213.105 655.071 212 655.071Z" fill="white" fill-opacity="0.5"/>
<path d="M190 655.071C188.895 655.071 188 655.941 188 657.013C188 658.085 188.895 658.955 190 658.955C191.105 658.955 192 658.085 192 657.013C192 655.941 191.105 655.071 190 655.071Z" fill="white" fill-opacity="0.5"/>
<path d="M168 655.071C166.895 655.071 166 655.941 166 657.013C166 658.085 166.895 658.955 168 658.955C169.105 658.955 170 658.085 170 657.013C170 655.941 169.105 655.071 168 655.071Z" fill="white" fill-opacity="0.5"/>
<path d="M146 655.071C144.895 655.071 144 655.941 144 657.013C144 658.085 144.895 658.955 146 658.955C147.105 658.955 148 658.085 148 657.013C148 655.941 147.105 655.071 146 655.071Z" fill="white" fill-opacity="0.5"/>
<path d="M124 655.071C122.895 655.071 122 655.941 122 657.013C122 658.085 122.895 658.955 124 658.955C125.105 658.955 126 658.085 126 657.013C126 655.941 125.105 655.071 124 655.071Z" fill="white" fill-opacity="0.5"/>
<path d="M102 655.071C100.895 655.071 100 655.941 100 657.013C100 658.085 100.895 658.955 102 658.955C103.105 658.955 104 658.085 104 657.013C104 655.941 103.105 655.071 102 655.071Z" fill="white" fill-opacity="0.5"/>
<path d="M190 761.872C188.895 761.872 188 762.742 188 763.814C188 764.886 188.895 765.756 190 765.756C191.105 765.756 192 764.886 192 763.814C192 762.742 191.105 761.872 190 761.872Z" fill="white" fill-opacity="0.5"/>
<path d="M190 740.512C188.895 740.512 188 741.382 188 742.454C188 743.526 188.895 744.396 190 744.396C191.105 744.396 192 743.526 192 742.454C192 741.382 191.105 740.512 190 740.512Z" fill="white" fill-opacity="0.5"/>
<path d="M190 719.152C188.895 719.152 188 720.022 188 721.094C188 722.166 188.895 723.036 190 723.036C191.105 723.036 192 722.166 192 721.094C192 720.022 191.105 719.152 190 719.152Z" fill="white" fill-opacity="0.5"/>
<path d="M190 697.791C188.895 697.791 188 698.661 188 699.733C188 700.805 188.895 701.675 190 701.675C191.105 701.675 192 700.805 192 699.733C192 698.661 191.105 697.791 190 697.791Z" fill="white" fill-opacity="0.5"/>
<path d="M190 676.431C188.895 676.431 188 677.301 188 678.373C188 679.445 188.895 680.315 190 680.315C191.105 680.315 192 679.445 192 678.373C192 677.301 191.105 676.431 190 676.431Z" fill="white" fill-opacity="0.5"/>
<path d="M168 761.872C166.895 761.872 166 762.742 166 763.814C166 764.886 166.895 765.756 168 765.756C169.105 765.756 170 764.886 170 763.814C170 762.742 169.105 761.872 168 761.872Z" fill="white" fill-opacity="0.5"/>
<path d="M168 740.512C166.895 740.512 166 741.382 166 742.454C166 743.526 166.895 744.396 168 744.396C169.105 744.396 170 743.526 170 742.454C170 741.382 169.105 740.512 168 740.512Z" fill="white" fill-opacity="0.5"/>
<path d="M168 719.152C166.895 719.152 166 720.022 166 721.094C166 722.166 166.895 723.036 168 723.036C169.105 723.036 170 722.166 170 721.094C170 720.022 169.105 719.152 168 719.152Z" fill="white" fill-opacity="0.5"/>
<path d="M168 697.791C166.895 697.791 166 698.661 166 699.733C166 700.805 166.895 701.675 168 701.675C169.105 701.675 170 700.805 170 699.733C170 698.661 169.105 697.791 168 697.791Z" fill="white" fill-opacity="0.5"/>
<path d="M168 676.431C166.895 676.431 166 677.301 166 678.373C166 679.445 166.895 680.315 168 680.315C169.105 680.315 170 679.445 170 678.373C170 677.301 169.105 676.431 168 676.431Z" fill="white" fill-opacity="0.5"/>
<path d="M146 761.872C144.895 761.872 144 762.742 144 763.814C144 764.886 144.895 765.756 146 765.756C147.105 765.756 148 764.886 148 763.814C148 762.742 147.105 761.872 146 761.872Z" fill="white" fill-opacity="0.5"/>
<path d="M124 761.872C122.895 761.872 122 762.742 122 763.814C122 764.886 122.895 765.756 124 765.756C125.105 765.756 126 764.886 126 763.814C126 762.742 125.105 761.872 124 761.872Z" fill="white" fill-opacity="0.5"/>
<path d="M102 761.872C100.895 761.872 100 762.742 100 763.814C100 764.886 100.895 765.756 102 765.756C103.105 765.756 104 764.886 104 763.814C104 762.742 103.105 761.872 102 761.872Z" fill="white" fill-opacity="0.5"/>
<path d="M146 740.512C144.895 740.512 144 741.382 144 742.454C144 743.526 144.895 744.396 146 744.396C147.105 744.396 148 743.526 148 742.454C148 741.382 147.105 740.512 146 740.512Z" fill="white" fill-opacity="0.5"/>
<path d="M124 740.512C122.895 740.512 122 741.382 122 742.454C122 743.526 122.895 744.396 124 744.396C125.105 744.396 126 743.526 126 742.454C126 741.382 125.105 740.512 124 740.512Z" fill="white" fill-opacity="0.5"/>
<path d="M102 740.512C100.895 740.512 100 741.382 100 742.454C100 743.526 100.895 744.396 102 744.396C103.105 744.396 104 743.526 104 742.454C104 741.382 103.105 740.512 102 740.512Z" fill="white" fill-opacity="0.5"/>
<path d="M146 719.152C144.895 719.152 144 720.022 144 721.094C144 722.166 144.895 723.036 146 723.036C147.105 723.036 148 722.166 148 721.094C148 720.022 147.105 719.152 146 719.152Z" fill="white" fill-opacity="0.5"/>
<path d="M146 697.791C144.895 697.791 144 698.661 144 699.733C144 700.805 144.895 701.675 146 701.675C147.105 701.675 148 700.805 148 699.733C148 698.661 147.105 697.791 146 697.791Z" fill="white" fill-opacity="0.5"/>
<path d="M146 676.431C144.895 676.431 144 677.301 144 678.373C144 679.445 144.895 680.315 146 680.315C147.105 680.315 148 679.445 148 678.373C148 677.301 147.105 676.431 146 676.431Z" fill="white" fill-opacity="0.5"/>
<path d="M124 719.152C122.895 719.152 122 720.022 122 721.094C122 722.166 122.895 723.036 124 723.036C125.105 723.036 126 722.166 126 721.094C126 720.022 125.105 719.152 124 719.152Z" fill="white" fill-opacity="0.5"/>
<path d="M124 697.791C122.895 697.791 122 698.661 122 699.733C122 700.805 122.895 701.675 124 701.675C125.105 701.675 126 700.805 126 699.733C126 698.661 125.105 697.791 124 697.791Z" fill="white" fill-opacity="0.5"/>
<path d="M124 676.431C122.895 676.431 122 677.301 122 678.373C122 679.445 122.895 680.315 124 680.315C125.105 680.315 126 679.445 126 678.373C126 677.301 125.105 676.431 124 676.431Z" fill="white" fill-opacity="0.5"/>
<path d="M102 719.152C100.895 719.152 100 720.022 100 721.094C100 722.166 100.895 723.036 102 723.036C103.105 723.036 104 722.166 104 721.094C104 720.022 103.105 719.152 102 719.152Z" fill="white" fill-opacity="0.5"/>
<path d="M102 697.791C100.895 697.791 100 698.661 100 699.733C100 700.805 100.895 701.675 102 701.675C103.105 701.675 104 700.805 104 699.733C104 698.661 103.105 697.791 102 697.791Z" fill="white" fill-opacity="0.5"/>
<path d="M102 676.431C100.895 676.431 100 677.301 100 678.373C100 679.445 100.895 680.315 102 680.315C103.105 680.315 104 679.445 104 678.373C104 677.301 103.105 676.431 102 676.431Z" fill="white" fill-opacity="0.5"/>
<path d="M948 220.116H920V181.116H948" stroke="white" stroke-opacity="0.3" stroke-width="4"/>
<path d="M173.5 182C162.73 182 154 190.73 154 201.5C154 212.27 162.73 221 173.5 221C184.27 221 193 212.27 193 201.5C193 190.73 184.27 182 173.5 182Z" fill="white" fill-opacity="0.4"/>
<path d="M60.5 673.116C50.5 673.116 52.2666 664.82 45.5 664.616C38.4036 664.402 37.0988 674.221 30 674.116C23.0669 674.014 21.9339 664.616 15 664.616C8.06613 664.616 9 673.116 0 673.116" stroke="white" stroke-opacity="0.3" stroke-width="4" stroke-linecap="round"/>
</g>
<g clip-path="url(#clip2_1_2)">
<path opacity="0.3" d="M312.045 233.083C255.261 246.67 210.402 278.316 203.21 336.466C197.155 385.452 211.138 468.715 307.496 477.578C502.286 495.487 709.804 513.429 737.87 428.994C756.904 371.748 763.176 269.32 658.054 237.841C586.751 216.464 433.76 203.983 312.045 233.083Z" fill="#E6E6E6"/>
<path opacity="0.45" d="M480.877 553C626.459 553 744.477 542.874 744.477 530.383C744.477 517.892 626.459 507.767 480.877 507.767C335.294 507.767 217.277 517.892 217.277 530.383C217.277 542.874 335.294 553 480.877 553Z" fill="#E6E6E6"/>
<path d="M356.469 397.9L360.852 386.793L370.536 362.216L380.371 337.203C382.913 330.787 385.489 324.655 388.617 318.49C389.543 316.423 390.759 314.499 392.229 312.777C392.968 311.917 393.881 311.224 394.908 310.745C395.934 310.265 397.051 310.01 398.184 309.996C398.473 309.978 398.761 310.055 399.003 310.214C399.189 310.382 399.328 310.596 399.405 310.834C400.371 313.49 400.447 316.39 399.622 319.093C399.026 321.13 398.288 323.123 397.414 325.057C396.819 326.579 396.464 328.184 396.361 329.815C396.361 330.016 396.277 330.385 396.244 330.619L395.391 336.332L392.045 358.463L388.249 383.995C387.457 389.322 386.665 394.639 385.874 399.944C385.874 400.178 387.546 391.383 385.74 400.932C383.933 410.481 367.224 427.335 356.469 397.9Z" fill="#FFD6CB"/>
<path d="M450.034 459.886C450.034 459.886 464.702 473.725 445.702 473.172C426.701 472.619 433.693 457.809 450.034 459.886Z" fill="#005BA8"/>
<path d="M340.529 304.216C340.529 304.216 368.963 325.509 355.583 333.718C342.202 341.927 331.849 302.239 331.849 302.239L340.529 304.216Z" fill="#24285B"/>
<path d="M340.396 286.073C340.396 286.073 342.537 295.086 341.885 301.402C341.822 302.013 341.639 302.605 341.347 303.145C341.054 303.684 340.657 304.16 340.18 304.545C339.702 304.93 339.153 305.216 338.564 305.387C337.976 305.558 337.359 305.61 336.75 305.54C334.777 305.445 332.873 304.783 331.265 303.634C329.657 302.484 328.414 300.895 327.684 299.056L323.77 291.434C323.156 289.826 323.051 288.067 323.47 286.398C323.889 284.728 324.812 283.228 326.112 282.102C330.728 277.629 339.376 280.494 340.396 286.073Z" fill="#FFD6CB"/>
<path d="M324.539 296.158L327.383 326.414L343.925 323.65L335.21 302.742L324.539 296.158Z" fill="#FFD6CB"/>
<path d="M331.816 295.354C331.816 295.354 331.23 291.836 328.621 292.49C326.012 293.143 326.831 298.253 330.494 298.202L331.816 295.354Z" fill="#FFD6CB"/>
<path d="M341.416 291.82L344.494 294.986C344.668 295.166 344.793 295.387 344.859 295.629C344.925 295.871 344.929 296.126 344.871 296.37C344.813 296.614 344.694 296.839 344.526 297.024C344.357 297.21 344.145 297.35 343.908 297.432L340.563 298.605L341.416 291.82Z" fill="#FFD6CB"/>
<path d="M395.341 435.125C395.341 435.125 451.924 420.75 459.3 445.796C466.677 470.842 380.187 468.379 380.187 468.379L360.501 452.782L395.341 435.125Z" fill="#24285B"/>
<path d="M337.001 322.142C337.001 322.142 369.934 325.492 392.882 351.778C406.513 367.375 401.362 380.376 394.922 388.367C392.221 391.788 390.413 395.83 389.663 400.127C388.912 404.424 389.243 408.84 390.624 412.977L397.448 434.27C397.448 434.27 361.019 457.725 338.004 455.312C314.989 452.9 242.566 325.76 337.001 322.142Z" fill="#005BA8"/>
<path opacity="0.08" d="M292.141 348.847C292.141 348.847 288.06 361.361 290.285 373.457C292.509 385.553 303.9 465.884 379.417 444.189L397.448 434.137L378.313 418.003L341.7 379.639L325.677 348.83L292.141 348.847Z" fill="black"/>
<path d="M318 403.126C301.809 354.006 229.537 362.047 223.348 413.412C216.975 466.436 224.201 518.304 309.42 527.803C444.899 542.88 466.275 502.857 447.157 470.557C428.04 438.257 332.919 455.228 318.719 405.421C318.502 404.6 318.268 403.863 318 403.126Z" fill="#E6E6E6"/>
<path d="M429.779 430.803C429.779 430.803 448.679 435.394 450.034 423.348L429.779 421.153V430.803Z" fill="#FFD6CB"/>
<path d="M314.923 350.22C314.722 338.845 327.433 331.524 336.9 337.789C343.39 342.078 349.779 350.907 353.626 368.263C361.153 402.171 379.886 416.847 429.779 421.153V430.802C429.779 430.802 316.946 459.534 314.923 350.22Z" fill="#FFD6CB"/>
<path d="M338.522 288.268C339.611 287.832 340.567 287.117 341.293 286.195C342.02 285.273 342.491 284.175 342.661 283.013C342.83 281.85 342.691 280.664 342.259 279.572C341.826 278.48 341.114 277.521 340.195 276.792C339.174 275.999 338.048 275.35 336.85 274.865C328.972 271.515 310.088 273.877 311.343 291.82C312.597 309.762 282.691 350.556 309.67 361.63C336.649 372.703 359.145 358.078 359.145 344.877C359.145 331.675 333.521 328.576 331.849 317.083C331.163 312.392 330.511 307.433 329.959 303.195C329.581 300.114 330.211 296.993 331.755 294.301C333.3 291.609 335.674 289.492 338.522 288.268Z" fill="#24285B"/>
<path opacity="0.45" d="M272.84 458.948C263.306 450.236 248.37 459.785 252.484 472.032C258.322 489.355 271.736 506.342 301.207 511.368C367.425 522.66 360.969 498.116 356.687 487.411C353.124 478.666 309.336 492.303 272.84 458.948Z" fill="white"/>
<path opacity="0.43" d="M416.65 296.254C416.77 299.876 415.853 303.457 414.007 306.574C413.882 306.773 413.696 306.926 413.477 307.01C413.257 307.095 413.017 307.105 412.791 307.041C412.565 306.977 412.366 306.842 412.223 306.655C412.081 306.468 412.002 306.24 412 306.004V296.338C411.996 295.967 412.081 295.601 412.248 295.27C412.414 294.939 412.658 294.654 412.958 294.437C413.258 294.22 413.606 294.079 413.972 294.025C414.338 293.971 414.711 294.006 415.061 294.126C415.515 294.27 415.912 294.552 416.197 294.934C416.482 295.316 416.641 295.777 416.65 296.254Z" fill="white"/>
<path d="M578.539 409.359C570.795 418.539 560.827 426.246 549.202 429.211C547.581 429.393 546.082 430.161 544.987 431.372C544.605 432.18 544.418 433.066 544.441 433.96C544.465 434.853 544.697 435.729 545.121 436.515C548.048 443.624 553.252 449.555 559.913 453.376C566.575 457.198 574.316 458.692 581.918 457.624C588.139 456.431 594.052 453.979 599.296 450.42C604.29 447.453 608.554 443.399 611.774 438.559C615.52 432.444 616.574 425.073 616.975 417.919C617.344 411.46 617.26 404.983 616.725 398.536C616.122 391.433 610.971 374.026 600.133 377.478C595.667 378.885 592.706 388.367 590.482 392.136C586.998 398.208 583.003 403.969 578.539 409.359Z" fill="#005BA8"/>
<path opacity="0.08" d="M578.539 409.359C570.795 418.539 560.827 426.246 549.202 429.211C547.581 429.393 546.082 430.161 544.987 431.372C544.605 432.18 544.418 433.066 544.441 433.96C544.465 434.853 544.697 435.729 545.121 436.515C548.048 443.624 553.252 449.555 559.913 453.376C566.575 457.198 574.316 458.692 581.918 457.624C588.139 456.431 594.052 453.979 599.296 450.42C604.29 447.453 608.554 443.399 611.774 438.559C615.52 432.444 616.574 425.073 616.975 417.919C617.344 411.46 617.26 404.983 616.725 398.536C616.122 391.433 610.971 374.026 600.133 377.478C595.667 378.885 592.706 388.367 590.482 392.136C586.998 398.208 583.003 403.969 578.539 409.359Z" fill="black"/>
<path d="M565.66 420.382C567.145 420.817 568.738 420.68 570.126 419.997C571.508 419.453 572.72 418.551 573.638 417.383C574.095 416.798 574.43 416.128 574.626 415.412C574.821 414.696 574.872 413.948 574.776 413.212C574.753 412.881 574.657 412.558 574.495 412.269C574.333 411.979 574.109 411.729 573.839 411.536C573.404 411.285 572.852 411.268 572.417 411C572.002 410.633 571.662 410.19 571.414 409.694C571.016 409.183 570.509 408.767 569.93 408.477C569.352 408.188 568.716 408.031 568.069 408.018C566.761 408.002 565.467 408.289 564.289 408.856C563.433 409.143 562.652 409.617 562.002 410.242C561.351 410.868 560.847 411.63 560.525 412.475C560.365 413.435 560.487 414.421 560.876 415.313C561.265 416.206 561.904 416.965 562.716 417.501C564.378 418.549 566.232 419.256 568.169 419.578" fill="#24285B"/>
<path d="M521.588 348.578H505.665C505.395 348.578 505.127 348.633 504.879 348.739C504.631 348.845 504.407 349.001 504.22 349.197C504.034 349.393 503.89 349.625 503.796 349.879C503.702 350.132 503.661 350.402 503.674 350.672L504.979 377.008C505.034 377.916 505.434 378.769 506.096 379.392C506.758 380.015 507.633 380.361 508.541 380.359H518.962C519.884 380.359 520.77 380.002 521.435 379.361C522.099 378.721 522.49 377.847 522.524 376.924L523.578 350.605C523.58 350.341 523.53 350.079 523.432 349.835C523.333 349.59 523.187 349.367 523.002 349.179C522.817 348.991 522.597 348.841 522.354 348.738C522.112 348.635 521.851 348.58 521.588 348.578Z" fill="#005BA8"/>
<path d="M410.916 288.919H394.993C394.723 288.919 394.456 288.973 394.207 289.08C393.959 289.186 393.735 289.342 393.549 289.538C393.363 289.734 393.218 289.966 393.124 290.219C393.03 290.473 392.989 290.743 393.003 291.013L394.307 317.349C394.363 318.257 394.762 319.11 395.424 319.733C396.087 320.355 396.961 320.701 397.87 320.7H408.29C409.212 320.7 410.099 320.343 410.763 319.702C411.427 319.062 411.818 318.188 411.853 317.265L412.906 290.946C412.909 290.682 412.859 290.42 412.76 290.175C412.661 289.931 412.515 289.708 412.33 289.52C412.146 289.331 411.925 289.181 411.683 289.078C411.44 288.975 411.18 288.921 410.916 288.919Z" fill="#005BA8"/>
<path d="M517.038 373.339L515.867 373.256L517.941 343.201C517.947 343.12 517.97 343.041 518.007 342.969C518.045 342.897 518.096 342.833 518.159 342.782C518.295 342.686 518.462 342.644 518.627 342.665L528.278 344.34L528.094 345.496L519.062 343.971L517.038 373.339Z" fill="#24285B"/>
<path d="M406.366 313.68L405.195 313.596L407.269 283.541C407.276 283.46 407.298 283.382 407.335 283.31C407.373 283.238 407.424 283.174 407.487 283.122C407.623 283.026 407.79 282.984 407.955 283.005L417.606 284.68L417.422 285.836L408.39 284.312L406.366 313.68Z" fill="#24285B"/>
<path opacity="0.44" d="M521.036 358.195H506.35L507.003 376.121C507.024 376.697 507.268 377.242 507.683 377.642C508.098 378.042 508.651 378.265 509.227 378.265H518.042C518.615 378.266 519.166 378.045 519.58 377.648C519.995 377.252 520.24 376.711 520.266 376.137L521.036 358.195Z" fill="white"/>
<path opacity="0.44" d="M410.364 298.536H395.678L396.331 316.462C396.352 317.038 396.596 317.584 397.011 317.984C397.426 318.384 397.979 318.607 398.555 318.606H407.37C407.943 318.607 408.494 318.386 408.908 317.99C409.323 317.593 409.568 317.052 409.594 316.479L410.364 298.536Z" fill="white"/>
<path d="M614.801 283.979C614.801 283.979 614.55 294.567 616.758 301.469C617.208 302.797 618.163 303.894 619.416 304.521C620.668 305.149 622.117 305.256 623.448 304.82C625.636 304.249 627.612 303.056 629.137 301.386C630.663 299.715 631.673 297.638 632.045 295.404L634.621 285.972C634.939 284.028 634.646 282.033 633.783 280.263C632.92 278.492 631.53 277.034 629.804 276.088C623.616 272.252 614.634 277.479 614.801 283.979Z" fill="#FFD6CB"/>
<path d="M634.186 287.714L641.796 321.605L622.846 324.47L624.92 298.654L634.186 287.714Z" fill="#FFD6CB"/>
<path d="M617.393 284.213C620.663 284.134 623.912 283.679 627.078 282.856C626.225 284.351 625.829 286.064 625.939 287.783C626.049 289.501 626.66 291.149 627.697 292.523C628.668 293.88 630.081 294.856 631.693 295.281C633.306 295.706 635.015 295.554 636.528 294.851L635.508 281.265C635.425 279.317 634.818 277.429 633.753 275.798C632.687 274.167 631.201 272.855 629.453 272C627.932 271.263 626.368 270.62 624.77 270.074C620.772 268.75 615.219 271.749 611.539 269.303C611.169 269.065 610.744 268.927 610.305 268.901C609.866 268.876 609.428 268.964 609.033 269.158C608.638 269.352 608.299 269.644 608.05 270.007C607.8 270.37 607.648 270.791 607.609 271.23C607.257 275.401 608.412 281.868 614.132 283.778C615.188 284.098 616.29 284.245 617.393 284.213Z" fill="#24285B"/>
<path d="M626.593 292.355C626.593 292.355 626.409 288.267 629.486 288.401C632.564 288.535 632.832 294.398 628.734 295.219L626.593 292.355Z" fill="#FFD6CB"/>
<path d="M614.985 290.68L612.375 294.885C612.215 295.126 612.12 295.405 612.099 295.695C612.079 295.984 612.133 296.274 612.258 296.535C612.383 296.797 612.573 297.022 612.811 297.188C613.048 297.354 613.325 297.455 613.613 297.482L617.694 297.984L614.985 290.68Z" fill="#FFD6CB"/>
<path opacity="0.31" d="M624.234 304.283C626.569 303.538 628.634 302.122 630.172 300.212C630.172 300.212 630.306 306.562 623.749 313.263L624.234 304.283Z" fill="#CE8172"/>
<path d="M650.996 455.581L599.781 452.231C599.781 452.231 599.045 447.205 597.924 439.029C597.121 433.149 596.101 425.627 595.014 417.418C593.224 403.797 591.251 387.999 589.678 373.491C585.815 338.025 622.846 324.438 622.846 324.438L641.796 321.573C727.901 334.976 650.996 455.581 650.996 455.581Z" fill="#005BA8"/>
<path opacity="0.08" d="M646.631 403.797C622.763 432.897 615.504 450.555 615.504 450.555L597.925 439.062C597.122 433.182 596.102 425.66 595.015 417.45L609.031 396.727L650.009 350.656L651.297 350.957C651.297 350.957 670.499 374.697 646.631 403.797Z" fill="black"/>
<path d="M649.608 342.765C648.424 338.55 645.707 334.932 641.991 332.624C638.276 330.317 633.832 329.488 629.536 330.301C619.802 332.177 608.194 338.677 604.113 358.496C600.905 374.506 595.114 389.886 586.969 404.031C586.163 405.406 585.065 406.587 583.751 407.489C582.438 408.391 580.943 408.992 579.372 409.249C577.801 409.507 576.192 409.414 574.661 408.979C573.129 408.543 571.712 407.775 570.511 406.728L529.766 371.547L520.634 382.286L568.269 432.126C571.412 435.417 575.594 437.516 580.106 438.069C584.618 438.622 589.183 437.593 593.024 435.158C616.925 419.997 661.734 385.201 649.608 342.765Z" fill="#005BA8"/>
<path opacity="0.46" d="M649.608 342.765C648.424 338.55 645.707 334.932 641.991 332.624C638.276 330.317 633.832 329.488 629.536 330.301C619.802 332.177 608.194 338.677 604.113 358.496C600.905 374.506 595.114 389.886 586.969 404.031C586.163 405.406 585.065 406.587 583.751 407.489C582.438 408.391 580.943 408.992 579.372 409.249C577.801 409.507 576.192 409.414 574.661 408.979C573.129 408.543 571.712 407.775 570.511 406.728L529.766 371.547L520.634 382.286L568.269 432.126C571.412 435.417 575.594 437.516 580.106 438.069C584.618 438.622 589.183 437.593 593.024 435.158C616.925 419.997 661.734 385.201 649.608 342.765Z" fill="white"/>
<path d="M529.75 371.513C529.75 371.513 517.256 358.312 510.766 367.375C504.276 376.438 520.618 382.252 520.618 382.252L529.75 371.513Z" fill="#FFD6CB"/>
<path d="M436.078 330.853C436.078 330.853 423.584 317.652 417.094 326.715C410.604 335.779 426.946 341.592 426.946 341.592L436.078 330.853Z" fill="#FFD6CB"/>
<path d="M533.663 459.886C533.663 459.886 518.995 473.725 538.012 473.172C557.029 472.619 550.021 457.809 533.663 459.886Z" fill="#005BA8"/>
<path d="M594.696 438.342C594.696 438.342 531.79 420.751 524.447 445.797C517.105 470.843 603.561 468.38 603.561 468.38L623.231 452.783L594.696 438.342Z" fill="#24285B"/>
<path d="M643.72 403.126C659.911 354.006 732.2 362.047 738.372 413.412C744.744 466.436 737.519 518.304 652.3 527.803C516.82 542.88 495.445 502.857 514.562 470.557C533.68 438.257 628.8 455.228 643.017 405.421C643.235 404.6 643.469 403.863 643.72 403.126Z" fill="#E6E6E6"/>
<path opacity="0.45" d="M688.914 458.948C698.447 450.236 713.384 459.785 709.269 472.032C703.448 489.355 690.017 506.342 660.546 511.368C594.345 522.66 600.802 498.116 605.067 487.411C608.546 478.666 652.401 492.303 688.914 458.948Z" fill="white"/>
<path opacity="0.58" d="M268.675 509.575C268.675 509.575 252.284 505.085 248.721 489.806C248.721 489.806 274.111 484.68 274.83 510.932L268.675 509.575Z" fill="#005BA8"/>
<path opacity="0.73" d="M270.682 507.951C270.682 507.951 259.225 489.807 269.311 472.87C269.311 472.87 288.612 485.15 280.032 508.051L270.682 507.951Z" fill="#005BA8"/>
<path d="M273.626 507.968C273.626 507.968 279.681 488.819 297.929 485.184C297.929 485.184 301.274 497.615 286.087 508.018L273.626 507.968Z" fill="#005BA8"/>
<path d="M261.751 507.531L265.063 530.299L285.987 530.383L289.081 507.649L261.751 507.531Z" fill="#24285B"/>
</g>
</g>
</g>
<defs>
<linearGradient id="paint0_linear_1_2" x1="271.5" y1="107" x2="179.5" y2="42.5" gradientUnits="userSpaceOnUse">
<stop stop-color="white" stop-opacity="0.3"/>
<stop offset="0.958608" stop-color="white" stop-opacity="0"/>
</linearGradient>
<linearGradient id="paint1_linear_1_2" x1="47.9997" y1="248" x2="86.4998" y2="134.5" gradientUnits="userSpaceOnUse">
<stop stop-color="white" stop-opacity="0.3"/>
<stop offset="1" stop-color="white" stop-opacity="0"/>
</linearGradient>
<linearGradient id="paint2_linear_1_2" x1="726" y1="586" x2="726" y2="735" gradientUnits="userSpaceOnUse">
<stop stop-color="white" stop-opacity="0.3"/>
<stop offset="1" stop-color="white" stop-opacity="0"/>
</linearGradient>
<clipPath id="clip0_1_2">
<rect width="950" height="768" fill="white" transform="translate(0.5)"/>
</clipPath>
<clipPath id="clip1_1_2">
<rect width="950" height="768" fill="white"/>
</clipPath>
<clipPath id="clip2_1_2">
<rect width="547" height="337" fill="white" transform="translate(202 216)"/>
</clipPath>
</defs>
</svg>
